<?xml version="1.0" encoding="UTF-8" standalone="no"?><svg xmlns="http://www.w3.org/2000/svg" xmlns:xlink="http://www.w3.org/1999/xlink" contentScriptType="application/ecmascript" contentStyleType="text/css" height="714px" preserveAspectRatio="none" style="width:1788px;height:714px;background:#FEFEFE;" version="1.1" viewBox="0 0 1788 714" width="1788px" zoomAndPan="magnify"><defs><filter height="300%" id="f1mkdjt6mbzcla" width="300%" x="-1" y="-1"><feGaussianBlur result="blurOut" stdDeviation="2.0"/><feColorMatrix in="blurOut" result="blurOut2" type="matrix" values="0 0 0 0 0 0 0 0 0 0 0 0 0 0 0 0 0 0 .4 0"/><feOffset dx="4.0" dy="4.0" in="blurOut2" result="blurOut3"/><feBlend in="SourceGraphic" in2="blurOut3" mode="normal"/></filter></defs><g><text fill="#000000" font-family="sans-serif" font-size="18" lengthAdjust="spacingAndGlyphs" textLength="394" x="700" y="19.2419">Strategient Architect - Infrastructure Overview</text><!--MD5=[45cd916274b4330ee371c4fa9be4f5cf]
cluster Strategient Architect--><polygon fill="#FEFEFE" filter="url(#f1mkdjt6mbzcla)" points="22,48.5158,173,48.5158,180,73.5838,1191,73.5838,1191,592.5158,22,592.5158,22,48.5158" style="stroke: #000000; stroke-width: 1.5;"/><line style="stroke: #000000; stroke-width: 1.5;" x1="22" x2="180" y1="73.5838" y2="73.5838"/><text fill="#000000" font-family="sans-serif" font-size="14" font-weight="bold" lengthAdjust="spacingAndGlyphs" textLength="145" x="26" y="65.4818">Strategient Architect</text><!--MD5=[dc7884ea341f370891cf7f2f02f7a7e1]
cluster studio--><rect fill="#FEFEFE" filter="url(#f1mkdjt6mbzcla)" height="267" style="stroke: #000000; stroke-width: 1.5;" width="439" x="54" y="102.5158"/><rect fill="#FEFEFE" height="10" style="stroke: #000000; stroke-width: 1.5;" width="15" x="473" y="107.5158"/><rect fill="#FEFEFE" height="2" style="stroke: #000000; stroke-width: 1.5;" width="4" x="471" y="109.5158"/><rect fill="#FEFEFE" height="2" style="stroke: #000000; stroke-width: 1.5;" width="4" x="471" y="113.5158"/><text fill="#000000" font-family="sans-serif" font-size="14" font-weight="bold" lengthAdjust="spacingAndGlyphs" textLength="74" x="236.5" y="130.4818">Qt6 Studio</text><!--MD5=[e471781225fc0f8fbd677bbc1a50d018]
cluster engine--><rect fill="#FEFEFE" filter="url(#f1mkdjt6mbzcla)" height="300" style="stroke: #000000; stroke-width: 1.5;" width="272" x="533" y="260.5158"/><rect fill="#FEFEFE" height="10" style="stroke: #000000; stroke-width: 1.5;" width="15" x="785" y="265.5158"/><rect fill="#FEFEFE" height="2" style="stroke: #000000; stroke-width: 1.5;" width="4" x="783" y="267.5158"/><rect fill="#FEFEFE" height="2" style="stroke: #000000; stroke-width: 1.5;" width="4" x="783" y="271.5158"/><text fill="#000000" font-family="sans-serif" font-size="14" font-weight="bold" lengthAdjust="spacingAndGlyphs" textLength="82" x="628" y="288.4818">Rust Engine</text><!--MD5=[dec65acb061c0ad7eb693bd0c7daa717]
cluster storage--><path d="M845,446.5158 C845,436.5158 1002,436.5158 1002,436.5158 C1002,436.5158 1159,436.5158 1159,446.5158 L1159,550.5158 C1159,560.5158 1002,560.5158 1002,560.5158 C1002,560.5158 845,560.5158 845,550.5158 L845,446.5158 " fill="#FEFEFE" filter="url(#f1mkdjt6mbzcla)" style="stroke: #000000; stroke-width: 1.5;"/><path d="M845,446.5158 C845,456.5158 1002,456.5158 1002,456.5158 C1002,456.5158 1159,456.5158 1159,446.5158 " fill="none" style="stroke: #000000; stroke-width: 1.5;"/><text fill="#000000" font-family="sans-serif" font-size="14" font-weight="bold" lengthAdjust="spacingAndGlyphs" textLength="94" x="955" y="473.4818">Local Storage</text><!--MD5=[435464093a9f7b89fa22162b79794319]
cluster External Tools--><polygon fill="#FEFEFE" filter="url(#f1mkdjt6mbzcla)" points="1392,268.5158,1496,268.5158,1503,293.5838,1633,293.5838,1633,361.5158,1392,361.5158,1392,268.5158" style="stroke: #000000; stroke-width: 1.5;"/><line style="stroke: #000000; stroke-width: 1.5;" x1="1392" x2="1503" y1="293.5838" y2="293.5838"/><text fill="#000000" font-family="sans-serif" font-size="14" font-weight="bold" lengthAdjust="spacingAndGlyphs" textLength="98" x="1396" y="285.4818">External Tools</text><!--MD5=[bfeb4e40a9e05244ea0843bb1cef058f]
cluster cloud--><polygon fill="#FEFEFE" filter="url(#f1mkdjt6mbzcla)" points="1223,451.5158,1339,451.5158,1346,476.5838,1423,476.5838,1423,702.5158,1223,702.5158,1223,451.5158" style="stroke: #000000; stroke-width: 1.5;"/><line style="stroke: #000000; stroke-width: 1.5;" x1="1223" x2="1346" y1="476.5838" y2="476.5838"/><text fill="#000000" font-family="sans-serif" font-size="14" font-weight="bold" lengthAdjust="spacingAndGlyphs" textLength="110" x="1227" y="468.4818">Cloud Providers</text><!--MD5=[67c2e8747380050f6b87fe09d4fe0abc]
entity MainWindow--><rect fill="#FEFECE" filter="url(#f1mkdjt6mbzcla)" height="39.0679" style="stroke: #A80036; stroke-width: 1.5;" width="108" x="78" y="148.5158"/><rect fill="#FEFECE" height="5" style="stroke: #A80036; stroke-width: 1.5;" width="10" x="73" y="153.5158"/><rect fill="#FEFECE" height="5" style="stroke: #A80036; stroke-width: 1.5;" width="10" x="73" y="177.5838"/><text fill="#000000" font-family="sans-serif" font-size="14" lengthAdjust="spacingAndGlyphs" textLength="88" x="88" y="173.4818">MainWindow</text><!--MD5=[aeb75ef65d9d495edae0c69a43f432c0]
entity DiagramView--><rect fill="#FEFECE" filter="url(#f1mkdjt6mbzcla)" height="39.0679" style="stroke: #A80036; stroke-width: 1.5;" width="109" x="221.5" y="148.5158"/><rect fill="#FEFECE" height="5" style="stroke: #A80036; stroke-width: 1.5;" width="10" x="216.5" y="153.5158"/><rect fill="#FEFECE" height="5" style="stroke: #A80036; stroke-width: 1.5;" width="10" x="216.5" y="177.5838"/><text fill="#000000" font-family="sans-serif" font-size="14" lengthAdjust="spacingAndGlyphs" textLength="89" x="231.5" y="173.4818">DiagramView</text><!--MD5=[164b5ad57a08c8e5f55639e102d50f7f]
entity Inspector--><rect fill="#FEFECE" filter="url(#f1mkdjt6mbzcla)" height="39.0679" style="stroke: #A80036; stroke-width: 1.5;" width="84" x="366" y="148.5158"/><rect fill="#FEFECE" height="5" style="stroke: #A80036; stroke-width: 1.5;" width="10" x="361" y="153.5158"/><rect fill="#FEFECE" height="5" style="stroke: #A80036; stroke-width: 1.5;" width="10" x="361" y="177.5838"/><text fill="#000000" font-family="sans-serif" font-size="14" lengthAdjust="spacingAndGlyphs" textLength="64" x="376" y="173.4818">Inspector</text><!--MD5=[c850d4b2306873e724bc0426f18d0187]
entity RunConsole--><rect fill="#FEFECE" filter="url(#f1mkdjt6mbzcla)" height="39.0679" style="stroke: #A80036; stroke-width: 1.5;" width="100" x="82" y="306.5158"/><rect fill="#FEFECE" height="5" style="stroke: #A80036; stroke-width: 1.5;" width="10" x="77" y="311.5158"/><rect fill="#FEFECE" height="5" style="stroke: #A80036; stroke-width: 1.5;" width="10" x="77" y="335.5838"/><text fill="#000000" font-family="sans-serif" font-size="14" lengthAdjust="spacingAndGlyphs" textLength="80" x="92" y="331.4818">RunConsole</text><!--MD5=[9b3a4ba404af3423f5bbfb0877b73a55]
entity PlantUMLPreview--><rect fill="#FEFECE" filter="url(#f1mkdjt6mbzcla)" height="39.0679" style="stroke: #A80036; stroke-width: 1.5;" width="136" x="217" y="306.5158"/><rect fill="#FEFECE" height="5" style="stroke: #A80036; stroke-width: 1.5;" width="10" x="212" y="311.5158"/><rect fill="#FEFECE" height="5" style="stroke: #A80036; stroke-width: 1.5;" width="10" x="212" y="335.5838"/><text fill="#000000" font-family="sans-serif" font-size="14" lengthAdjust="spacingAndGlyphs" textLength="116" x="227" y="331.4818">PlantUMLPreview</text><!--MD5=[b38a8c9bddc8975fc3096a307ab02373]
entity Core Logic--><rect fill="#FEFECE" filter="url(#f1mkdjt6mbzcla)" height="39.0679" style="stroke: #A80036; stroke-width: 1.5;" width="90" x="557" y="306.5158"/><rect fill="#FEFECE" height="5" style="stroke: #A80036; stroke-width: 1.5;" width="10" x="552" y="311.5158"/><rect fill="#FEFECE" height="5" style="stroke: #A80036; stroke-width: 1.5;" width="10" x="552" y="335.5838"/><text fill="#000000" font-family="sans-serif" font-size="14" lengthAdjust="spacingAndGlyphs" textLength="70" x="567" y="331.4818">Core Logic</text><!--MD5=[50544afeaa418f6931c092f647c60cfe]
entity IR Model--><rect fill="#FEFECE" filter="url(#f1mkdjt6mbzcla)" height="39.0679" style="stroke: #A80036; stroke-width: 1.5;" width="80" x="682" y="306.5158"/><rect fill="#FEFECE" height="5" style="stroke: #A80036; stroke-width: 1.5;" width="10" x="677" y="311.5158"/><rect fill="#FEFECE" height="5" style="stroke: #A80036; stroke-width: 1.5;" width="10" x="677" y="335.5838"/><text fill="#000000" font-family="sans-serif" font-size="14" lengthAdjust="spacingAndGlyphs" textLength="60" x="692" y="331.4818">IR Model</text><!--MD5=[e7b4ba715b9378c57f39440bbe1913bc]
entity Persistence--><rect fill="#FEFECE" filter="url(#f1mkdjt6mbzcla)" height="39.0679" style="stroke: #A80036; stroke-width: 1.5;" width="97" x="556.5" y="497.5158"/><rect fill="#FEFECE" height="5" style="stroke: #A80036; stroke-width: 1.5;" width="10" x="551.5" y="502.5158"/><rect fill="#FEFECE" height="5" style="stroke: #A80036; stroke-width: 1.5;" width="10" x="551.5" y="526.5838"/><text fill="#000000" font-family="sans-serif" font-size="14" lengthAdjust="spacingAndGlyphs" textLength="77" x="566.5" y="522.4818">Persistence</text><!--MD5=[6e44819da0b64dd96f0a225e124c6555]
entity YAML/JSON IR--><rect fill="#FEFECE" filter="url(#f1mkdjt6mbzcla)" height="39.0679" style="stroke: #A80036; stroke-width: 1.5;" width="114" x="1021" y="497.5158"/><rect fill="#FEFECE" height="5" style="stroke: #A80036; stroke-width: 1.5;" width="10" x="1016" y="502.5158"/><rect fill="#FEFECE" height="5" style="stroke: #A80036; stroke-width: 1.5;" width="10" x="1016" y="526.5838"/><text fill="#000000" font-family="sans-serif" font-size="14" lengthAdjust="spacingAndGlyphs" textLength="94" x="1031" y="522.4818">YAML/JSON IR</text><!--MD5=[373702a4dc6f49a43e2cd5c2957485ce]
entity Config Files--><rect fill="#FEFECE" filter="url(#f1mkdjt6mbzcla)" height="39.0679" style="stroke: #A80036; stroke-width: 1.5;" width="98" x="888" y="497.5158"/><rect fill="#FEFECE" height="5" style="stroke: #A80036; stroke-width: 1.5;" width="10" x="883" y="502.5158"/><rect fill="#FEFECE" height="5" style="stroke: #A80036; stroke-width: 1.5;" width="10" x="883" y="526.5838"/><text fill="#000000" font-family="sans-serif" font-size="14" lengthAdjust="spacingAndGlyphs" textLength="78" x="898" y="522.4818">Config Files</text><!--MD5=[f34abdc907f3da33f3fd0e2cc8b4f06b]
entity plantuml--><rect fill="#FEFECE" filter="url(#f1mkdjt6mbzcla)" height="39.0679" style="stroke: #A80036; stroke-width: 1.5;" width="84" x="1408" y="306.5158"/><rect fill="#FEFECE" height="5" style="stroke: #A80036; stroke-width: 1.5;" width="10" x="1403" y="311.5158"/><rect fill="#FEFECE" height="5" style="stroke: #A80036; stroke-width: 1.5;" width="10" x="1403" y="335.5838"/><text fill="#000000" font-family="sans-serif" font-size="14" lengthAdjust="spacingAndGlyphs" textLength="64" x="1418" y="331.4818">PlantUML</text><!--MD5=[fb7e5f8686e9aa1147f5db6f3d2ccab5]
entity cursor--><rect fill="#FEFECE" filter="url(#f1mkdjt6mbzcla)" height="39.0679" style="stroke: #A80036; stroke-width: 1.5;" width="90" x="1527" y="306.5158"/><rect fill="#FEFECE" height="5" style="stroke: #A80036; stroke-width: 1.5;" width="10" x="1522" y="311.5158"/><rect fill="#FEFECE" height="5" style="stroke: #A80036; stroke-width: 1.5;" width="10" x="1522" y="335.5838"/><text fill="#000000" font-family="sans-serif" font-size="14" lengthAdjust="spacingAndGlyphs" textLength="70" x="1537" y="331.4818">Cursor CLI</text><!--MD5=[6b79fc3fbc1964d4aa85a65b864094f2]
entity AWS--><rect fill="#FEFECE" filter="url(#f1mkdjt6mbzcla)" height="39.0679" style="stroke: #A80036; stroke-width: 1.5;" width="50" x="1266" y="497.5158"/><rect fill="#FEFECE" height="5" style="stroke: #A80036; stroke-width: 1.5;" width="10" x="1261" y="502.5158"/><rect fill="#FEFECE" height="5" style="stroke: #A80036; stroke-width: 1.5;" width="10" x="1261" y="526.5838"/><text fill="#000000" font-family="sans-serif" font-size="14" lengthAdjust="spacingAndGlyphs" textLength="30" x="1276" y="522.4818">AWS</text><!--MD5=[fbe032b0202dbecee04b1fa27165722c]
entity GCP--><rect fill="#FEFECE" filter="url(#f1mkdjt6mbzcla)" height="39.0679" style="stroke: #A80036; stroke-width: 1.5;" width="47" x="1351.5" y="497.5158"/><rect fill="#FEFECE" height="5" style="stroke: #A80036; stroke-width: 1.5;" width="10" x="1346.5" y="502.5158"/><rect fill="#FEFECE" height="5" style="stroke: #A80036; stroke-width: 1.5;" width="10" x="1346.5" y="526.5838"/><text fill="#000000" font-family="sans-serif" font-size="14" lengthAdjust="spacingAndGlyphs" textLength="27" x="1361.5" y="522.4818">GCP</text><!--MD5=[e4a8075cc378d5866b51e10e7e6d7549]
entity Azure--><rect fill="#FEFECE" filter="url(#f1mkdjt6mbzcla)" height="39.0679" style="stroke: #A80036; stroke-width: 1.5;" width="59" x="1266.5" y="639.5158"/><rect fill="#FEFECE" height="5" style="stroke: #A80036; stroke-width: 1.5;" width="10" x="1261.5" y="644.5158"/><rect fill="#FEFECE" height="5" style="stroke: #A80036; stroke-width: 1.5;" width="10" x="1261.5" y="668.5838"/><text fill="#000000" font-family="sans-serif" font-size="14" lengthAdjust="spacingAndGlyphs" textLength="39" x="1276.5" y="664.4818">Azure</text><path d="M1652,303.5158 L1652,348.9279 L1776,348.9279 L1776,313.5158 L1766,303.5158 L1652,303.5158 " fill="#FBFB77" filter="url(#f1mkdjt6mbzcla)" style="stroke: #A80036; stroke-width: 1.0;"/><path d="M1766,303.5158 L1766,313.5158 L1776,313.5158 L1766,303.5158 " fill="#FBFB77" style="stroke: #A80036; stroke-width: 1.0;"/><text fill="#000000" font-family="sans-serif" font-size="13" lengthAdjust="spacingAndGlyphs" textLength="103" x="1658" y="322.4129">Rust static library</text><text fill="#000000" font-family="sans-serif" font-size="13" lengthAdjust="spacingAndGlyphs" textLength="90" x="1658" y="340.1189">linked via C ABI</text><path d="M1207.5,303.5158 L1207.5,348.9279 L1372.5,348.9279 L1372.5,313.5158 L1362.5,303.5158 L1207.5,303.5158 " fill="#FBFB77" filter="url(#f1mkdjt6mbzcla)" style="stroke: #A80036; stroke-width: 1.0;"/><path d="M1362.5,303.5158 L1362.5,313.5158 L1372.5,313.5158 L1362.5,303.5158 " fill="#FBFB77" style="stroke: #A80036; stroke-width: 1.0;"/><text fill="#000000" font-family="sans-serif" font-size="13" lengthAdjust="spacingAndGlyphs" textLength="144" x="1213.5" y="322.4129">Qt6 Widgets Application</text><text fill="#000000" font-family="sans-serif" font-size="13" lengthAdjust="spacingAndGlyphs" textLength="88" x="1213.5" y="340.1189">C++20 / CMake</text><!--MD5=[c5366c7fefd628010aac161bbaf08cbd]
link studio to engine--><path d="M493.1258,169.9822 C493.4992,170.0278 493.8844,170.075 494.2814,170.1238 C495.0752,170.2214 495.9157,170.3254 496.8013,170.4357 C503.8855,171.3188 513.8506,172.6105 525.8481,174.2976 C549.8431,177.6718 581.9675,182.6277 615.4325,189.0596 C682.3625,201.9233 754.655,220.6908 778,244.5158 C781.115,247.6958 783.7542,251.2862 785.9872,255.1408 C786.5455,256.1044 787.0783,257.0846 787.5869,258.079 C787.8411,258.5762 788.0893,259.077 788.3316,259.581 C788.4527,259.833 788.5724,260.0859 788.6906,260.3395 " fill="none" id="studio-&gt;engine" style="stroke: #A80036; stroke-width: 1.0;"/><polygon fill="#A80036" points="788.6906,260.3395,788.515,250.4922,786.5787,255.8073,781.2636,253.8711,788.6906,260.3395" style="stroke: #A80036; stroke-width: 1.0;"/><text fill="#000000" font-family="sans-serif" font-size="13" lengthAdjust="spacingAndGlyphs" textLength="31" x="768" y="232.4129">C ABI</text><!--MD5=[703620695ae93117b793f655646bb7a4]
link engine to storage--><path d="M805.0643,354.2334 C805.1414,354.4936 805.2189,354.7552 805.2968,355.0181 C805.6085,356.0701 805.9269,357.1444 806.2514,358.2396 C811.4441,375.7633 818.2281,398.6583 825.0113,421.5508 C831.7944,444.4433 838.5766,467.3333 843.7655,484.8471 C844.0898,485.9417 844.4079,487.0153 844.7193,488.0666 C844.7972,488.3294 844.8747,488.5909 844.9517,488.8509 " fill="none" id="engine-&gt;storage" style="stroke: #A80036; stroke-width: 1.0;"/><polygon fill="#A80036" points="844.9517,488.8509,846.2303,479.0854,843.5314,484.0569,838.5599,481.3579,844.9517,488.8509" style="stroke: #A80036; stroke-width: 1.0;"/><text fill="#000000" font-family="sans-serif" font-size="13" lengthAdjust="spacingAndGlyphs" textLength="67" x="822" y="408.4129">Read/Write</text><!--MD5=[c3d9567a100955874e6c7789617d291b]
link studio to plantuml--><path d="M494.073,169.318 C494.8128,169.3435 495.596,169.3705 496.4217,169.3991 C503.0278,169.6281 512.3597,169.9579 524.0491,170.3876 C547.428,171.2471 580.2366,172.5061 619.5269,174.1569 C698.1075,177.4587 802.615,182.3277 909.465,188.7021 C1123.165,201.4508 1346.235,220.2208 1390,244.5158 C1412.9,257.2258 1429.59,282.7558 1439.47,301.6658 " fill="none" id="studio-&gt;plantuml" style="stroke: #A80036; stroke-width: 1.0;"/><polygon fill="#A80036" points="1441.83,306.3258,1441.3325,296.4896,1439.5711,301.8652,1434.1954,300.1038,1441.83,306.3258" style="stroke: #A80036; stroke-width: 1.0;"/><text fill="#000000" font-family="sans-serif" font-size="13" lengthAdjust="spacingAndGlyphs" textLength="103" x="1367" y="232.4129">Render Diagrams</text><!--MD5=[166908a23b16ffbe8cfbb43985b80908]
link studio to cursor--><path d="M493.7241,169.0927 C494.1042,169.0963 494.4962,169.1 494.9,169.1039 C495.7077,169.1116 496.5626,169.1198 497.4641,169.1287 C504.6758,169.1991 514.8642,169.3046 527.6286,169.4514 C553.1576,169.7451 588.9908,170.2044 631.9228,170.8804 C717.7869,172.2324 832.0462,174.4515 949.0575,177.9471 C1183.08,184.9383 1428.11,197.0358 1479,217.5158 C1517.74,233.1058 1545.9,275.0558 1560.54,301.7058 " fill="none" id="studio-&gt;cursor" style="stroke: #A80036; stroke-width: 1.0; stroke-dasharray: 7.0,7.0;"/><polygon fill="#A80036" points="1562.94,306.1658,1562.1912,296.3455,1560.5678,301.7644,1555.1489,300.141,1562.94,306.1658" style="stroke: #A80036; stroke-width: 1.0;"/><text fill="#000000" font-family="sans-serif" font-size="13" lengthAdjust="spacingAndGlyphs" textLength="107" x="1509" y="232.4129">Agent Integration</text><!--MD5=[8642664207363a73c6fafa51642df88c]
link engine to cloud--><path d="M805.2295,327.3798 C805.5843,327.3986 805.9498,327.4184 806.326,327.439 C807.0784,327.4803 807.8734,327.5253 808.71,327.5742 C815.4025,327.9653 824.7537,328.6079 836.2123,329.6412 C859.1297,331.7077 890.4769,335.3371 925.8437,341.6433 C996.5775,354.2558 1083.39,377.5758 1151,420.5158 C1174.005,435.1258 1193.745,458.4883 1207.8613,478.4483 C1211.3903,483.4383 1214.5679,488.2157 1217.3571,492.5905 C1218.7517,494.7778 1220.0493,496.8646 1221.2451,498.8269 C1221.843,499.8081 1222.4155,500.7582 1222.962,501.6742 " fill="none" id="engine-&gt;cloud" style="stroke: #A80036; stroke-width: 1.0; stroke-dasharray: 7.0,7.0;"/><polygon fill="#A80036" points="1222.962,501.6742,1221.786,491.8958,1220.4003,497.3803,1214.9158,495.9946,1222.962,501.6742" style="stroke: #A80036; stroke-width: 1.0;"/><text fill="#000000" font-family="sans-serif" font-size="13" lengthAdjust="spacingAndGlyphs" textLength="96" x="1135" y="408.4129">Deploy/Manage</text><!--MD5=[ea055090b6914869e45ce3a7aa32da4d]
link engine to GMN30--><path d="M805.3949,322.8758 C805.756,322.7425 806.1283,322.6052 806.5115,322.464 C808.0445,321.8993 809.7531,321.2726 811.63,320.5882 C819.1379,317.8504 829.3402,314.1871 841.7766,309.8577 C866.6494,301.199 900.4588,289.8758 939.5225,277.9633 C1017.65,254.1383 1116.795,227.9558 1207.5,216.0158 C1297.39,204.1758 1532.72,179.0258 1615.5,216.0158 C1655.29,233.7958 1685.67,276.4658 1701.59,303.1358 " fill="none" id="engine-GMN30" style="stroke: #A80036; stroke-width: 1.0; stroke-dasharray: 7.0,7.0;"/><!--MD5=[be27a060dfdb20908d7919e5127aa3a6]
link studio to GMN33--><path d="M493.2925,170.0466 C493.4553,170.0669 493.6203,170.0876 493.7875,170.1085 C494.1219,170.1504 494.4654,170.1934 494.8177,170.2375 C500.4546,170.9442 508.3638,171.9464 518.1395,173.2119 C537.6909,175.743 564.7081,179.3277 595.9437,183.7096 C658.415,192.4733 737.76,204.4258 808,217.5158 C948.97,243.7858 1111.47,281.6158 1207.2,304.6858 " fill="none" id="studio-GMN33" style="stroke: #A80036; stroke-width: 1.0; stroke-dasharray: 7.0,7.0;"/><!--MD5=[0114b04a5d281dfb64cff5fc2be2ee37]
link MainWindow to DiagramView--><!--MD5=[ed738320b3e7eee63802b88160967f74]
link DiagramView to Inspector--><!--MD5=[18fda73b565362bae3003157d223bc8e]
link MainWindow to RunConsole--><!--MD5=[ea43cf8bf013e3888ae531a90cdc3c85]
link RunConsole to PlantUMLPreview--><!--MD5=[f003bdfbeb33d3892264e2be4aa25b54]
link Core Logic to IR Model--><!--MD5=[8f112ed95a804ad2d7c457f8ff966671]
link Core Logic to Persistence--><!--MD5=[28d7420131d5d0aaf6eb07e63b8e6ccd]
link AWS to GCP--><!--MD5=[a6d5f58ced787d30b2c71f4f9b1f9d9f]
link AWS to Azure--><!--MD5=[e8807f5b676afef78a456c13ad1dee2c]
@startuml sample_infra

skinparam backgroundColor #fefefe
skinparam componentStyle rectangle

title Strategient Architect - Infrastructure Overview

package "Strategient Architect" {
    
    component "Qt6 Studio" as studio {
        [MainWindow]
        [DiagramView]
        [Inspector]
        [RunConsole]
        [PlantUMLPreview]
    }
    
    component "Rust Engine" as engine {
        [Core Logic]
        [IR Model]
        [Persistence]
    }
    
    database "Local Storage" as storage {
        [YAML/JSON IR]
        [Config Files]
    }
}

package "External Tools" {
    [PlantUML] as plantuml
    [Cursor CLI] as cursor
}

package "Cloud Providers" as cloud {
    [AWS]
    [GCP]
    [Azure]
}

studio - -> engine : C ABI
engine - -> storage : Read/Write
studio - -> plantuml : Render Diagrams
studio ..> cursor : Agent Integration
engine ..> cloud : Deploy/Manage

note right of engine
  Rust static library
  linked via C ABI
end note

note bottom of studio
  Qt6 Widgets Application
  C++20 / CMake
end note

@enduml

PlantUML version 1.2020.02(Sun Mar 01 05:22:07 EST 2020)
(GPL source distribution)
Java Runtime: OpenJDK Runtime Environment
JVM: OpenJDK 64-Bit Server VM
Java Version: 21.0.9+10-Ubuntu-124.04
Operating System: Linux
Default Encoding: UTF-8
Language: en
Country: US
--></g></svg>