<svg xmlns="http://www.w3.org/2000/svg" viewBox="0 0 64 64" width="64" height="64">
  <defs>
    <linearGradient id="py-grad1" x1="0%" y1="0%" x2="100%" y2="100%">
      <stop offset="0%" style="stop-color:#387EB8"/>
      <stop offset="100%" style="stop-color:#306998"/>
    </linearGradient>
    <linearGradient id="py-grad2" x1="0%" y1="0%" x2="100%" y2="100%">
      <stop offset="0%" style="stop-color:#FFE873"/>
      <stop offset="100%" style="stop-color:#FFD43B"/>
    </linearGradient>
  </defs>
  <rect x="4" y="8" width="56" height="48" rx="4" fill="#2D3748"/>
  <path d="M32 14 Q22 14 22 22 L22 28 L42 28 L42 30 L20 30 Q14 30 14 38 Q14 46 22 46 L26 46 L26 40 Q26 34 32 34 L42 34 Q48 34 48 28 L48 22 Q48 14 38 14 Z" fill="url(#py-grad1)"/>
  <circle cx="27" cy="20" r="2" fill="white"/>
  <path d="M32 50 Q42 50 42 42 L42 36 L22 36 L22 34 L44 34 Q50 34 50 26 Q50 18 42 18 L38 18 L38 24 Q38 30 32 30 L22 30 Q16 30 16 36 L16 42 Q16 50 26 50 Z" fill="url(#py-grad2)"/>
  <circle cx="37" cy="44" r="2" fill="white"/>
  <text x="32" y="58" text-anchor="middle" font-family="Arial" font-size="8" fill="white">Python</text>
</svg>

